# xmcd
# 
# Track frame offsets:
#     150
#     32995
#     46284
#     68707
#     105022
#     128492
#     144489
#     164765
# 
# Disc length: 2781
# 
# Revision: 1
# Processed by: cddbd v1.5.2PL0 Copyright (c) Steve Scherf et al.
# Submitted via: fre:ac v1.0.31
# 
DISCID=650adb08
DTITLE=Bad Penny - Live In Berlin  CD 1
DYEAR=2013
DGENRE=Folk/ Celtic - Blues
TTITLE0=Sailing To The Celtic King
TTITLE1=Motherless Child
TTITLE2=Whale Song
TTITLE3=I Play Just What I Feel
TTITLE4=Captain Kennedy
TTITLE5=Ride Through The Night
TTITLE6=Barley And Grape rag
TTITLE7=A Million Miles Away
EXTD=YEAR: 2013
EXTT0=
EXTT1=
EXTT2=
EXTT3=
EXTT4=
EXTT5=
EXTT6=
EXTT7=
PLAYORDER=
